{
    "asset" : {
        "generator" : "Khronos glTF Blender I/O v3.4.50",
        "version" : "2.0"
    },
    "scene" : 0,
    "scenes" : [
        {
            "extras" : {
                "texpaint_layers" : {
                    "multiply_slider" : 100.0
                }
            },
            "name" : "Scene",
            "nodes" : [
                0,
                1,
                2
            ]
        }
    ],
    "nodes" : [
        {
            "mesh" : 0,
            "name" : "Cube.002",
            "rotation" : [
                0.09391792118549347,
                0,
                0,
                0.9955799579620361
            ],
            "scale" : [
                0.4174116849899292,
                0.4174116849899292,
                0.4174116849899292
            ],
            "translation" : [
                0,
                1.316138744354248,
                -0.3177857995033264
            ]
        },
        {
            "mesh" : 1,
            "name" : "Sphere.004",
            "scale" : [
                0.2529980540275574,
                0.2529980540275574,
                0.2529980540275574
            ],
            "translation" : [
                0,
                1.1541988849639893,
                0.42831242084503174
            ]
        },
        {
            "mesh" : 2,
            "name" : "Plane",
            "scale" : [
                0.2529980540275574,
                0.2529980540275574,
                0.2529980540275574
            ],
            "translation" : [
                0,
                -0.1833907961845398,
                0
            ]
        }
    ],
    "materials" : [
        {
            "doubleSided" : true,
            "extras" : {
                "layer_img_data" : {},
                "layer_list" : [
                    {
                        "mix" : "LAYER_MIX.001",
                        "multiply" : "LAYER_MULT.001",
                        "mask" : "LAYER_MASK.001",
                        "img_tex" : "LAYER_IMG.001",
                        "add" : "LAYER_ADD.001",
                        "name" : "Layer 1",
                        "texture" : "Layer 1"
                    },
                    {
                        "mix" : "LAYER_MIX.002",
                        "multiply" : "LAYER_MULT.002",
                        "mask" : "LAYER_MASK.002",
                        "img_tex" : "LAYER_IMG.002",
                        "add" : "LAYER_ADD.002",
                        "name" : "Layer 2",
                        "texture" : "Layer 2"
                    },
                    {
                        "mix" : "LAYER_MIX",
                        "multiply" : "LAYER_MULT",
                        "mask" : "LAYER_MASK",
                        "img_tex" : "LAYER_IMG",
                        "add" : "LAYER_ADD",
                        "name" : "Layer 0",
                        "texture" : "Layer 0_Material",
                        "name_private" : "Layer 0"
                    }
                ],
                "layer_shaders" : {
                    "diffuse" : "LAYER_DIFFUSE",
                    "transparent" : "LAYER_TRANSPARENT",
                    "mix" : "LAYER_MIX_SHADER"
                },
                "layer_private_index" : 2
            },
            "name" : "mat_004",
            "pbrMetallicRoughness" : {
                "baseColorTexture" : {
                    "index" : 0
                },
                "metallicFactor" : 0,
                "roughnessFactor" : 0.8911564350128174
            }
        }
    ],
    "meshes" : [
        {
            "name" : "Cube.003",
            "primitives" : [
                {
                    "attributes" : {
                        "POSITION" : 0,
                        "TEXCOORD_0" : 1,
                        "NORMAL" : 2
                    },
                    "indices" : 3,
                    "material" : 0
                }
            ]
        },
        {
            "name" : "Sphere.004",
            "primitives" : [
                {
                    "attributes" : {
                        "POSITION" : 4,
                        "TEXCOORD_0" : 5,
                        "NORMAL" : 6
                    },
                    "indices" : 7,
                    "material" : 0
                }
            ]
        },
        {
            "name" : "Plane",
            "primitives" : [
                {
                    "attributes" : {
                        "POSITION" : 8,
                        "TEXCOORD_0" : 9,
                        "NORMAL" : 10
                    },
                    "indices" : 11,
                    "material" : 0
                }
            ]
        }
    ],
    "textures" : [
        {
            "sampler" : 0,
            "source" : 0
        }
    ],
    "images" : [
        {
            "bufferView" : 4,
            "mimeType" : "image/jpeg",
            "name" : "Layer 1"
        }
    ],
    "accessors" : [
        {
            "bufferView" : 0,
            "componentType" : 5126,
            "count" : 50,
            "max" : [
                0.26083582639694214,
                0.5959466099739075,
                0.20439207553863525
            ],
            "min" : [
                -0.26083582639694214,
                -0.499276727437973,
                -1.193302869796753
            ],
            "type" : "VEC3"
        },
        {
            "bufferView" : 1,
            "componentType" : 5126,
            "count" : 50,
            "type" : "VEC2"
        },
        {
            "bufferView" : 2,
            "componentType" : 5126,
            "count" : 50,
            "type" : "VEC3"
        },
        {
            "bufferView" : 3,
            "componentType" : 5123,
            "count" : 72,
            "type" : "SCALAR"
        },
        {
            "bufferView" : 5,
            "componentType" : 5126,
            "count" : 88,
            "max" : [
                1.7013609409332275,
                0.635615348815918,
                0.43008753657341003
            ],
            "min" : [
                -1.7013609409332275,
                -0.5235706567764282,
                -0.5794808864593506
            ],
            "type" : "VEC3"
        },
        {
            "bufferView" : 6,
            "componentType" : 5126,
            "count" : 88,
            "type" : "VEC2"
        },
        {
            "bufferView" : 7,
            "componentType" : 5126,
            "count" : 88,
            "type" : "VEC3"
        },
        {
            "bufferView" : 8,
            "componentType" : 5123,
            "count" : 240,
            "type" : "SCALAR"
        },
        {
            "bufferView" : 9,
            "componentType" : 5126,
            "count" : 637,
            "max" : [
                1.638998031616211,
                6.1641764640808105,
                3.624121904373169
            ],
            "min" : [
                -1.638998031616211,
                0.7357426285743713,
                -1.8724220991134644
            ],
            "type" : "VEC3"
        },
        {
            "bufferView" : 10,
            "componentType" : 5126,
            "count" : 637,
            "type" : "VEC2"
        },
        {
            "bufferView" : 11,
            "componentType" : 5126,
            "count" : 637,
            "type" : "VEC3"
        },
        {
            "bufferView" : 12,
            "componentType" : 5123,
            "count" : 2238,
            "type" : "SCALAR"
        }
    ],
    "bufferViews" : [
        {
            "buffer" : 0,
            "byteLength" : 600,
            "byteOffset" : 0,
            "target" : 34962
        },
        {
            "buffer" : 0,
            "byteLength" : 400,
            "byteOffset" : 600,
            "target" : 34962
        },
        {
            "buffer" : 0,
            "byteLength" : 600,
            "byteOffset" : 1000,
            "target" : 34962
        },
        {
            "buffer" : 0,
            "byteLength" : 144,
            "byteOffset" : 1600,
            "target" : 34963
        },
        {
            "buffer" : 0,
            "byteLength" : 17025,
            "byteOffset" : 1744
        },
        {
            "buffer" : 0,
            "byteLength" : 1056,
            "byteOffset" : 18772,
            "target" : 34962
        },
        {
            "buffer" : 0,
            "byteLength" : 704,
            "byteOffset" : 19828,
            "target" : 34962
        },
        {
            "buffer" : 0,
            "byteLength" : 1056,
            "byteOffset" : 20532,
            "target" : 34962
        },
        {
            "buffer" : 0,
            "byteLength" : 480,
            "byteOffset" : 21588,
            "target" : 34963
        },
        {
            "buffer" : 0,
            "byteLength" : 7644,
            "byteOffset" : 22068,
            "target" : 34962
        },
        {
            "buffer" : 0,
            "byteLength" : 5096,
            "byteOffset" : 29712,
            "target" : 34962
        },
        {
            "buffer" : 0,
            "byteLength" : 7644,
            "byteOffset" : 34808,
            "target" : 34962
        },
        {
            "buffer" : 0,
            "byteLength" : 4476,
            "byteOffset" : 42452,
            "target" : 34963
        }
    ],
    "samplers" : [
        {
            "magFilter" : 9729,
            "minFilter" : 9987
        }
    ],
    "buffers" : [
        {
            "byteLength" : 46928,
            "uri" : "data:application/octet-stream;base64,"
        }
    ]
}
